<?xml version='1.0' encoding='utf-8'?>
<svg xmlns="http://www.w3.org/2000/svg" xmlns:inkscape="http://www.inkscape.org/namespaces/inkscape" xmlns:sodipodi="http://sodipodi.sourceforge.net/DTD/sodipodi-0.dtd" width="70mm" height="45mm" viewBox="0 0 70 45" version="1.1" id="svg46844" inkscape:version="1.1.2 (0a00cf5339, 2022-02-04)" sodipodi:docname="pyvale_rabbit_only.svg" inkscape:export-filename="/home/lloydf/Desktop/pyvale_logo/pyvale_rabbit_only.png" inkscape:export-xdpi="300" inkscape:export-ydpi="300">
  <sodipodi:namedview id="namedview46846" pagecolor="#ffffff" bordercolor="#666666" borderopacity="1.0" inkscape:pageshadow="2" inkscape:pageopacity="0.0" inkscape:pagecheckerboard="0" inkscape:document-units="mm" showgrid="false" inkscape:zoom="2.7282899" inkscape:cx="155.22544" inkscape:cy="126.26957" inkscape:window-width="1850" inkscape:window-height="1136" inkscape:window-x="0" inkscape:window-y="0" inkscape:window-maximized="1" inkscape:current-layer="layer1" width="105mm" inkscape:snap-global="false" />
  <defs id="defs46841" />
  <g inkscape:label="Layer 1" inkscape:groupmode="layer" id="layer1">
    <g id="g3520" transform="translate(-32.985708,0.67139495)">
      <path style="fill:none;stroke:#000000;stroke-width:0.5;stroke-linecap:round;stroke-linejoin:round;stroke-opacity:1" d="m 39.369457,33.247849 -2.894489,-1.326022 -1.045567,-1.786007 0.263316,-1.741575 0.98018,-1.901203 1.368063,-1.89342 2.246474,-2.52008 1.605708,-0.835007 2.159249,-0.80409 -1.152514,-1.480691 -1.497386,-2.980892 -2.417199,-7.8036348 -1.114679,-6.1483099 2.002817,1.8049144 1.117597,1.2776063 1.04965,1.365972 1.311772,1.6537366 1.179325,1.6409503 0.941691,1.6902121 1.252112,2.40938 0.417878,0.803497 1.574133,-3.081799 2.212282,-3.8541791 3.910912,-4.4368995 2.327642,-1.6052597 -0.673248,3.7995731 -2.18336,7.5584022 -1.801871,4.448008 -1.463548,2.639244 -1.376648,1.98917 1.293678,0.939579 0.729906,1.283981 3.327029,-0.566672 7.601194,-0.984361 7.788819,-0.438253 4.756688,0.106042 3.080689,0.440523 2.6246,0.828871 1.452327,0.995688 1.059614,1.41105 1.772187,0.09052 2.517537,0.57817 1.267767,0.779595 0.595088,1.175835 0.193055,1.104397 -0.708519,1.175544 2.186829,1.095944 1.855261,0.971774 2.919523,1.692434 1.864188,1.345973 1.188463,1.217001 1.316208,1.618959 0.0104,0.691634 -1.345753,0.429527 -2.828714,-0.493585 -3.063716,-0.92754 -1.423016,-0.638577 -1.284772,-0.254169 0.8896,2.060559 -0.03137,1.389904 -0.474215,1.614845 -1.172324,0.226845 -1.223904,-0.474249 -1.657699,-0.923685 -1.175827,-1.320442 -2.034673,-3.883396 -4.042592,1.642835 -5.517838,0.9622 -4.133291,0.221877 -4.390004,0.04693 -6.868837,-0.0826 -5.900592,-0.22333 L 48.366515,38.739515 45.3053,38.275594 42.221986,37.670209 40.931139,37.32293 c 0,0 -2.079985,-0.346344 -2.178037,-0.359788 -0.09805,-0.01344 -1.654889,-0.547878 -1.654889,-0.547878 l -0.269571,-0.877242 0.740641,-0.85412 z" id="path129037" />
      </g>
  </g>
</svg>